<svg xmlns="http://www.w3.org/2000/svg" width="89" height="89" viewBox="0 0 89 89">
  <g id="Group_5" data-name="Group 5" transform="translate(-698 -264.444)">
    <g id="Ellipse_1" data-name="Ellipse 1" transform="translate(698 264.444)" fill="#fff" stroke="#005289" stroke-width="5">
      <circle cx="44.5" cy="44.5" r="44.5" stroke="none"/>
      <circle cx="44.5" cy="44.5" r="42" fill="none"/>
    </g>
    <g id="Group_4" data-name="Group 4" transform="matrix(0.719, 0.695, -0.695, 0.719, 741.812, 276.97)">
      <path id="Path_1" data-name="Path 1" d="M45.8,3.336A3.382,3.382,0,0,0,42.381,0c-18.248,0,6.1,4.437-16.005,25.993S0,23.539,0,41.336a3.381,3.381,0,0,0,3.424,3.339C21.669,44.674,45.8,21.135,45.8,3.336Z" transform="translate(6.121 5.579)" fill="#003b68"/>
      <path id="Path_4" data-name="Path 4" d="M10.326,12.114H1.786A1.785,1.785,0,0,1,0,10.327V1.786A1.787,1.787,0,0,1,1.788,0h8.539a1.788,1.788,0,0,1,1.788,1.786v8.541A1.788,1.788,0,0,1,10.326,12.114Z" transform="translate(17.035 -4.96)" fill="#f15a29"/>
      <path id="Path_15" data-name="Path 15" d="M10.326,12.114H1.786A1.785,1.785,0,0,1,0,10.327V1.786A1.787,1.787,0,0,1,1.788,0h8.539a1.788,1.788,0,0,1,1.788,1.786v8.541A1.788,1.788,0,0,1,10.326,12.114Z" transform="translate(-4.88 16.203)" fill="#f15a29"/>
    </g>
  </g>
</svg>
